# xmcd
#
# Track frame offsets:
#	150
#	10823
#	32958
#	48020
#	68556
#	82909
#	97950
#	112990
#	125279
#	136106
#	150001
#	169649
#	182851
#	198718
#	211554
#	225189
#	234493
#	252154
#	265104
#	275832
#	286627
#	302677
#
# Disc length: 4184 seconds
#
# Revision: 0
# Processed by: cddbd v1.5.2PL0 Copyright (c) Steve Scherf et al.
# Submitted via: EasyCDDAExtractor 10.0.2.1
#
DISCID=0b105616
DTITLE=Various Artist - E.H. King CD#77
DYEAR=2006
DGENRE=Country
TTITLE0=Tammy Powell - Been Down That Road Before
TTITLE1=Ray William Roldan - Church Of Stone
TTITLE2=Kitty Houston - The Moon Was Gold
TTITLE3=T.J Marr - Under The Western Sky
TTITLE4=Jim Barribeau - Take My Hand Dear Lord
TTITLE5=Kitty Houston - Because He Gave Me You
TTITLE6=Jeff Hinson - Go
TTITLE7=Jesse Paul - Since My Daddy Once Had
TTITLE8=Ray R. Jones - What Would We Do Without Jesus
TTITLE9=Kitty Houston - Behave In My Behive
TTITLE10=Roger Eydenburgh - She Come-Me Dumb
TTITLE11=Loman Craig - Broken Hearted Man
TTITLE12=Phil Coley - Sad, Mad, And Had
TTITLE13=Loman Craig - Broken Hearted Man
TTITLE14=Don Powell - Danny's Washing Clothes Again
TTITLE15=Dick Mosely - Wagon's Ho
TTITLE16=Sonny Payne - Bitter Winds
TTITLE17=Loman Craig - Coughin' In My Coffin
TTITLE18=Ray R. Jones - Love Amid The Tears
TTITLE19=Andy Stanley - New Horizons
TTITLE20=Loman Craig - I Died Inside
TTITLE21=Ray R. Jones - When God Takes Over Your Life
EXTD=
EXTT0=
EXTT1=
EXTT2=
EXTT3=
EXTT4=
EXTT5=
EXTT6=
EXTT7=
EXTT8=
EXTT9=
EXTT10=
EXTT11=
EXTT12=
EXTT13=
EXTT14=
EXTT15=
EXTT16=
EXTT17=
EXTT18=
EXTT19=
EXTT20=
EXTT21=
PLAYORDER=
